# This file uses centimeters as units for non-parametric coordinates.

v 89.554361 0.000000 -9.795600
v 84.912761 0.000000 -9.795600
v 84.912761 119.812500 -9.795600
v 89.554361 0.375000 -9.795600
v 89.554361 112.312500 -9.795600
v 144.929361 112.312500 -9.795600
v 149.350360 119.812500 -9.795600
v 144.929361 0.375000 -9.795600
v 149.350360 0.000000 -9.795600
v 144.929361 0.000000 -9.795600
v 89.554361 112.312500 -5.733100
v 89.554361 0.000000 -5.733100
v 89.554361 0.000000 -8.108100
v 89.554361 0.375000 -8.108100
v 84.912761 119.812500 -5.733100
v 149.350360 119.812500 -5.733100
v 144.929361 112.312500 -5.733100
v 144.929361 0.000000 -5.733100
v 144.929361 0.375000 -8.108100
v 144.929361 0.000000 -8.108100
v 149.350360 0.000000 -5.733100
v 84.912761 0.000000 -5.733100
vt 0.000000 0.000000
vt -0.068800 0.996400
vt -0.068800 0.060400
vt -0.029200 0.060400
vt -0.029200 0.063500
vt -0.001000 0.996400
vt -0.001000 0.063500
vt 0.000000 -0.034400
vt 1.074000 -0.034400
vt 1.074000 -0.000500
vt -0.077400 -0.034400
vt -0.077400 -0.000500
vt -1.000300 -0.000500
vt -1.000300 -0.034400
vt 0.068800 0.060400
vt 0.068800 0.996400
vt 0.001000 0.996400
vt 0.029200 0.063500
vt 0.001000 0.063500
vt 0.029200 0.060400
vt -1.000000 1.062200
vt -1.000000 0.063800
vt -0.932300 0.063800
vt -0.932300 1.062200
vt 1.000300 0.060400
vt 1.074000 0.060400
vt 1.074000 1.058900
vt 1.000300 0.996400
vt 0.077400 0.996400
vt 0.000000 1.058900
vt 0.000000 0.060400
vt 0.077400 0.060400
vt 0.068800 1.058900
vt 0.001000 1.058900
vt 0.001000 0.060400
vt -1.000300 -0.014600
vt -1.074000 -0.000500
vt -1.074000 -0.034400
vt -0.077400 -0.014600
vt 0.028100 -0.000500
vt 0.028100 0.002600
vt 0.000000 0.002600
vt -0.028100 0.002600
vt -0.028100 -0.000500
vt 0.000000 0.000000
vt 0.000000 0.000000
vt 0.000000 0.000000
vt 0.000000 0.000000
vt 0.000000 0.000000
vt 0.000000 0.000000
vt 0.000000 0.000000
vt 0.000000 0.000000
vt 0.000000 0.000000
vt 0.000000 0.000000
vt 0.000000 0.000000
vt 0.000000 0.000000
vt 0.000000 0.000000
vt 0.000000 0.000000
vt 0.000000 0.000000
vt 0.000000 0.000000
vt 0.068800 0.060400
vt -1.000300 -0.000500
vt -1.000300 -0.034400
vt -1.000300 -0.034400
vt 0.000000 -0.034400
vt 0.000000 0.000000
vt -0.077400 -0.000500
vt -0.077400 -0.034400
vt -0.077400 -0.034400
vt -0.077400 -0.000500
vt 0.000000 0.000000
vt 0.000000 0.002600
vn 0.000000 0.000000 -1.000000
vn 0.000000 0.000000 -1.000000
vn 0.000000 0.000000 -1.000000
vn 0.000000 0.000000 -1.000000
vn 0.000000 0.000000 -1.000000
vn 0.000000 0.000000 -1.000000
vn 0.000000 0.000000 -1.000000
vn 0.000000 0.000000 -1.000000
vn 0.000000 0.000000 -1.000000
vn 0.000000 0.000000 -1.000000
vn 0.000000 0.000000 -1.000000
vn 0.000000 0.000000 -1.000000
vn 0.000000 0.000000 -1.000000
vn 0.000000 0.000000 -1.000000
vn 0.000000 0.000000 -1.000000
vn 0.000000 0.000000 -1.000000
vn 1.000000 0.000000 0.000000
vn 1.000000 0.000000 0.000000
vn 1.000000 0.000000 0.000000
vn 1.000000 0.000000 0.000000
vn 1.000000 0.000000 0.000000
vn 1.000000 0.000000 0.000000
vn 1.000000 0.000000 0.000000
vn 1.000000 0.000000 0.000000
vn 0.000000 1.000000 0.000000
vn 0.000000 1.000000 0.000000
vn 0.000000 1.000000 0.000000
vn 0.000000 1.000000 0.000000
vn 0.000000 -1.000000 0.000000
vn 0.000000 -1.000000 0.000000
vn 0.000000 -1.000000 0.000000
vn 0.000000 -1.000000 0.000000
vn -1.000000 0.000000 -0.000000
vn -1.000000 0.000000 -0.000000
vn -1.000000 0.000000 -0.000000
vn -1.000000 0.000000 -0.000000
vn -1.000000 0.000000 -0.000000
vn -1.000000 0.000000 -0.000000
vn -1.000000 0.000000 -0.000000
vn -1.000000 0.000000 -0.000000
vn -1.000000 0.000000 -0.000000
vn -1.000000 0.000000 -0.000000
vn 1.000000 0.000000 0.000000
vn 1.000000 0.000000 0.000000
vn 1.000000 0.000000 0.000000
vn 1.000000 0.000000 0.000000
vn 0.000000 0.000000 1.000000
vn 0.000000 0.000000 1.000000
vn 0.000000 0.000000 1.000000
vn 0.000000 0.000000 1.000000
vn 0.000000 0.000000 1.000000
vn 0.000000 0.000000 1.000000
vn 0.000000 0.000000 1.000000
vn 0.000000 0.000000 1.000000
vn 0.000000 0.000000 1.000000
vn 0.000000 0.000000 1.000000
vn 0.000000 0.000000 1.000000
vn 0.000000 0.000000 1.000000
vn -1.000000 0.000000 -0.000000
vn -1.000000 0.000000 -0.000000
vn -1.000000 0.000000 -0.000000
vn -1.000000 0.000000 -0.000000
vn 0.000000 -1.000000 0.000000
vn 0.000000 -1.000000 0.000000
vn 0.000000 -1.000000 0.000000
vn 0.000000 -1.000000 0.000000
vn 0.000000 -1.000000 0.000000
vn 0.000000 -1.000000 0.000000
vn 0.000000 -1.000000 0.000000
vn 0.000000 -1.000000 0.000000
vn 0.000000 -1.000000 0.000000
vn 0.000000 -1.000000 0.000000
vn 0.000000 -1.000000 0.000000
vn 0.000000 -1.000000 0.000000
vn 0.000000 -1.000000 0.000000
vn 0.000000 -1.000000 0.000000
vn -1.000000 0.000000 -0.000000
vn -1.000000 0.000000 -0.000000
vn -1.000000 0.000000 -0.000000
vn -1.000000 0.000000 -0.000000
vn 1.000000 0.000000 0.000000
vn 1.000000 0.000000 0.000000
vn 1.000000 0.000000 0.000000
vn 1.000000 0.000000 0.000000
f 1/1/1 2/45/2 3/46/3 4/47/4
f 5/48/5 4/49/6 3/50/7 6/51/8
f 6/52/9 3/53/10 7/54/11 8/55/12
f 8/56/13 7/57/14 9/58/15 10/59/16
f 11/2/17 12/3/18 13/4/19 14/5/20
f 5/6/21 11/2/22 14/5/23 4/7/24
f 3/60/25 15/8/26 16/9/27 7/10/28
f 11/11/29 5/12/30 6/13/31 17/14/32
f 18/15/33 17/16/34 6/17/35 19/18/36
f 19/18/37 6/17/38 8/19/39
f 20/20/40 18/15/41 19/18/42
f 16/21/43 21/22/44 9/23/45 7/24/46
f 18/25/47 21/26/48 16/27/49 17/28/50
f 11/29/51 17/28/52 16/27/53 15/30/54
f 11/29/55 15/30/56 22/31/57 12/32/58
f 22/61/59 15/33/60 3/34/61 2/35/62
f 20/36/63 10/62/64 9/37/65 18/63/66
f 18/64/67 9/37/68 21/38/69
f 22/65/70 2/66/71 1/67/72 12/68/73
f 12/69/74 1/70/75 13/39/76
f 20/40/77 19/41/78 8/42/79 10/71/80
f 14/43/81 13/44/82 1/1/83 4/72/84
