# This file uses centimeters as units for non-parametric coordinates.

v -0.722549 -0.009294 -0.049524
v -0.838745 -0.009294 -0.049524
v -0.838745 2.990173 -0.049524
v -0.722549 0.000094 -0.049524
v -0.722549 2.802414 -0.049524
v 0.663757 2.802414 -0.049524
v 0.774429 2.990173 -0.049524
v 0.663757 0.000094 -0.049524
v 0.774429 -0.009294 -0.049524
v 0.663757 -0.009294 -0.049524
v -0.722549 2.802414 0.052179
v -0.722549 -0.009294 0.052179
v -0.722549 -0.009294 -0.007278
v -0.722549 0.000094 -0.007278
v -0.838745 2.990173 0.052179
v 0.774429 2.990173 0.052179
v 0.663757 2.802414 0.052179
v 0.663757 -0.009294 0.052179
v 0.663757 0.000094 -0.007278
v 0.663757 -0.009294 -0.007278
v 0.774429 -0.009294 0.052179
v -0.838745 -0.009294 0.052179
vt 0.000000 0.000000
vt 0.000000 0.000000
vt 0.000000 0.000000
vt 0.000000 0.000000
vt 0.000000 0.000000
vt 0.000000 0.000000
vt 0.000000 0.000000
vt 0.000000 0.000000
vt 0.000000 0.000000
vt 0.000000 0.000000
vt 0.000000 0.000000
vt 0.000000 0.000000
vt 0.000000 0.000000
vt 0.000000 0.000000
vt 0.000000 0.000000
vt 0.000000 0.000000
vt -0.068800 0.996400
vt -0.068800 0.060400
vt -0.029200 0.060400
vt -0.029200 0.063500
vt -0.001000 0.996400
vt -0.001000 0.063500
vt 0.000000 0.000000
vt 0.000000 -0.034400
vt 1.074000 -0.034400
vt 1.074000 -0.000500
vt -0.077400 -0.034400
vt -0.077400 -0.000500
vt -1.000300 -0.000500
vt -1.000300 -0.034400
vt 0.068800 0.060400
vt 0.068800 0.996400
vt 0.001000 0.996400
vt 0.029200 0.063500
vt 0.001000 0.063500
vt 0.029200 0.060400
vt -1.000000 1.062200
vt -1.000000 0.063800
vt -0.932300 0.063800
vt -0.932300 1.062200
vt 1.000300 0.060400
vt 1.074000 0.060400
vt 1.074000 1.058900
vt 1.000300 0.996400
vt 0.077400 0.996400
vt 0.000000 1.058900
vt 0.000000 0.060400
vt 0.077400 0.060400
vt 0.068800 0.060400
vt 0.068800 1.058900
vt 0.001000 1.058900
vt 0.001000 0.060400
vt -1.000300 -0.014600
vt -1.000300 -0.000500
vt -1.074000 -0.000500
vt -1.000300 -0.034400
vt -1.000300 -0.034400
vt -1.074000 -0.034400
vt 0.000000 -0.034400
vt 0.000000 0.000000
vt -0.077400 -0.000500
vt -0.077400 -0.034400
vt -0.077400 -0.034400
vt -0.077400 -0.000500
vt -0.077400 -0.014600
vt 0.028100 -0.000500
vt 0.028100 0.002600
vt 0.000000 0.002600
vt 0.000000 0.000000
vt -0.028100 0.002600
vt -0.028100 -0.000500
vt 0.000000 0.002600
vn 0.000000 0.000000 -1.000000
vn 0.000000 0.000000 -1.000000
vn 0.000000 0.000000 -1.000000
vn 0.000000 0.000000 -1.000000
vn 0.000000 0.000000 -1.000000
vn 0.000000 0.000000 -1.000000
vn 0.000000 0.000000 -1.000000
vn 0.000000 0.000000 -1.000000
vn 0.000000 0.000000 -1.000000
vn 0.000000 0.000000 -1.000000
vn 0.000000 0.000000 -1.000000
vn 0.000000 0.000000 -1.000000
vn 0.000000 0.000000 -1.000000
vn 0.000000 0.000000 -1.000000
vn 0.000000 0.000000 -1.000000
vn 0.000000 0.000000 -1.000000
vn 1.000000 0.000000 0.000000
vn 1.000000 0.000000 0.000000
vn 1.000000 0.000000 0.000000
vn 1.000000 0.000000 0.000000
vn 1.000000 0.000000 0.000000
vn 1.000000 0.000000 0.000000
vn 1.000000 0.000000 0.000000
vn 1.000000 0.000000 0.000000
vn 0.000000 1.000000 0.000000
vn 0.000000 1.000000 0.000000
vn 0.000000 1.000000 0.000000
vn 0.000000 1.000000 0.000000
vn 0.000000 -1.000000 0.000000
vn 0.000000 -1.000000 0.000000
vn 0.000000 -1.000000 0.000000
vn 0.000000 -1.000000 0.000000
vn -1.000000 0.000000 0.000000
vn -1.000000 0.000000 0.000000
vn -1.000000 0.000000 0.000000
vn -1.000000 0.000000 0.000000
vn -1.000000 0.000000 0.000000
vn -1.000000 0.000000 0.000000
vn -1.000000 0.000000 0.000000
vn -1.000000 0.000000 0.000000
vn -1.000000 0.000000 0.000000
vn -1.000000 0.000000 0.000000
vn 1.000000 0.000000 0.000000
vn 1.000000 0.000000 0.000000
vn 1.000000 0.000000 0.000000
vn 1.000000 0.000000 0.000000
vn 0.000000 0.000000 1.000000
vn 0.000000 0.000000 1.000000
vn 0.000000 0.000000 1.000000
vn 0.000000 0.000000 1.000000
vn 0.000000 0.000000 1.000000
vn 0.000000 0.000000 1.000000
vn 0.000000 0.000000 1.000000
vn 0.000000 0.000000 1.000000
vn 0.000000 0.000000 1.000000
vn 0.000000 0.000000 1.000000
vn 0.000000 0.000000 1.000000
vn 0.000000 0.000000 1.000000
vn -1.000000 0.000000 0.000000
vn -1.000000 0.000000 0.000000
vn -1.000000 0.000000 0.000000
vn -1.000000 0.000000 0.000000
vn 0.000000 -1.000000 0.000000
vn 0.000000 -1.000000 0.000000
vn 0.000000 -1.000000 0.000000
vn 0.000000 -1.000000 0.000000
vn 0.000000 -1.000000 0.000000
vn 0.000000 -1.000000 0.000000
vn 0.000000 -1.000000 0.000000
vn 0.000000 -1.000000 0.000000
vn 0.000000 -1.000000 0.000000
vn 0.000000 -1.000000 0.000000
vn 0.000000 -1.000000 0.000000
vn 0.000000 -1.000000 0.000000
vn 0.000000 -1.000000 0.000000
vn 0.000000 -1.000000 0.000000
vn -1.000000 0.000000 0.000000
vn -1.000000 0.000000 0.000000
vn -1.000000 0.000000 0.000000
vn -1.000000 0.000000 0.000000
vn 1.000000 0.000000 0.000000
vn 1.000000 0.000000 0.000000
vn 1.000000 0.000000 0.000000
vn 1.000000 0.000000 0.000000
f 1/1/1 2/2/2 3/3/3 4/4/4
f 5/5/5 4/6/6 3/7/7 6/8/8
f 6/9/9 3/10/10 7/11/11 8/12/12
f 8/13/13 7/14/14 9/15/15 10/16/16
f 11/17/17 12/18/18 13/19/19 14/20/20
f 5/21/21 11/17/22 14/20/23 4/22/24
f 3/23/25 15/24/26 16/25/27 7/26/28
f 11/27/29 5/28/30 6/29/31 17/30/32
f 18/31/33 17/32/34 6/33/35 19/34/36
f 19/34/37 6/33/38 8/35/39
f 20/36/40 18/31/41 19/34/42
f 16/37/43 21/38/44 9/39/45 7/40/46
f 18/41/47 21/42/48 16/43/49 17/44/50
f 11/45/51 17/44/52 16/43/53 15/46/54
f 11/45/55 15/46/56 22/47/57 12/48/58
f 22/49/59 15/50/60 3/51/61 2/52/62
f 20/53/63 10/54/64 9/55/65 18/56/66
f 18/57/67 9/55/68 21/58/69
f 22/59/70 2/60/71 1/61/72 12/62/73
f 12/63/74 1/64/75 13/65/76
f 20/66/77 19/67/78 8/68/79 10/69/80
f 14/70/81 13/71/82 1/1/83 4/72/84
