# This file uses centimeters as units for non-parametric coordinates.

v 0.001453 -0.002834 -1.092908
v 0.001453 -0.002834 -0.503360
v 0.001453 0.548700 -1.092908
v 0.001453 0.546019 -0.503360
v 0.001453 1.253869 -1.091283
v 0.001453 1.254036 -0.504115
v 0.001453 1.493451 -1.091283
v 0.001453 1.493451 -0.504115
v 0.001260 -0.003932 0.267010
v 0.001453 -0.002834 0.515680
v 0.001453 1.494337 0.266119
v 0.001453 1.493451 0.517291
v 0.001453 0.959335 -0.253602
v 0.001515 0.959431 0.265832
v 0.001453 1.494337 -0.253602
v 0.001260 -0.003932 -0.253768
v 0.001260 0.959167 -0.503768
v 0.001260 0.959368 0.517010
v 0.001453 1.254081 0.517291
v 0.001453 1.257174 1.104944
v 0.001453 1.493451 1.104944
v 0.001453 1.252687 -0.253602
v 0.001481 1.252730 0.265989
v 0.001453 0.542887 0.515680
v 0.001404 0.541131 0.266343
v 0.001453 -0.002834 1.107534
v 0.001453 0.545488 1.107534
v 0.001260 -0.003932 1.387634
v 0.001260 1.494350 1.387634
v 0.001260 1.258894 1.387634
v 0.001260 0.546298 1.387634
v 0.001260 -0.003932 -1.362299
v 0.001260 1.494350 -1.362299
v 0.001260 1.252283 -1.362299
v 0.001260 0.552721 -1.362299
v 0.001371 0.547455 -0.253673
vt 0.000000 0.000000
vt 1.000000 0.000000
vt 1.000000 1.000000
vt 0.000000 1.000000
vt 0.000000 0.000000
vt 1.000000 0.000000
vt 1.000000 1.000000
vt 0.000000 1.000000
vt 0.000000 0.000000
vt 1.000000 0.000000
vt 1.000000 0.363768
vt 0.000000 0.363768
vt 0.000000 0.548319
vt 1.000000 0.548319
vt 1.000000 1.000000
vt 0.000000 1.000000
vt 0.000000 0.000000
vt 1.000000 0.000000
vt 1.000000 0.367949
vt 0.000000 0.367949
vt 0.000000 0.838660
vt 1.000000 0.838660
vt 1.000000 1.000000
vt 0.000000 1.000000
vt 0.000000 0.838721
vt 1.000000 0.838721
vt 1.000000 1.000000
vt 0.000000 1.000000
vt 0.000000 0.000000
vt 1.000000 0.000000
vt 1.000000 1.000000
vt 0.000000 1.000000
vt 0.000000 0.642802
vt 1.000000 0.642802
vt 0.000000 0.000000
vt 1.000000 0.000000
vt 0.000000 0.642936
vt 1.000000 0.642936
vt 0.000000 0.000000
vt 1.000000 0.000000
vt 1.000000 1.000000
vt 0.000000 1.000000
vt 0.000000 0.000000
vt 1.000000 0.000000
vt 1.000000 0.367240
vt 0.000000 0.367240
vt 0.000000 0.842849
vt 1.000000 0.842849
vt 1.000000 1.000000
vt 0.000000 1.000000
vt 0.000000 0.000000
vt 1.000000 0.000000
vt 1.000000 0.371527
vt 0.000000 0.371527
vt 0.000000 0.838437
vt 1.000000 0.838437
vt 1.000000 1.000000
vt 0.000000 1.000000
vn -1.000000 0.000000 0.000000
vn -1.000000 0.000000 0.000000
vn -1.000000 0.000000 0.000000
vn -1.000000 0.000000 0.000000
vn -1.000000 0.000000 0.000000
vn -1.000000 0.000000 0.000000
vn -1.000000 0.000000 0.000000
vn -1.000000 0.000000 0.000000
vn -1.000000 0.000000 0.000000
vn -1.000000 0.000000 0.000000
vn -1.000000 0.000032 0.000092
vn -1.000000 0.000033 0.000096
vn -1.000000 -0.000058 0.000060
vn -1.000000 -0.000058 0.000060
vn -1.000000 0.000000 0.000000
vn -1.000000 0.000000 0.000000
vn -1.000000 0.000000 0.000000
vn -1.000000 0.000000 0.000000
vn -1.000000 -0.000001 -0.000219
vn -1.000000 0.000000 -0.000221
vn -1.000000 0.000180 0.000212
vn -1.000000 0.000181 0.000213
vn -1.000000 0.000000 0.000000
vn -1.000000 0.000000 0.000000
vn -1.000000 0.000123 -0.000336
vn -1.000000 0.000122 -0.000334
vn -1.000000 0.000000 0.000000
vn -1.000000 0.000000 0.000000
vn -1.000000 0.000000 0.000000
vn -1.000000 0.000000 0.000000
vn -1.000000 0.000000 0.000000
vn -1.000000 0.000000 0.000000
vn -1.000000 0.000059 0.000290
vn -1.000000 0.000059 0.000290
vn -1.000000 0.000181 0.000213
vn -1.000000 0.000180 0.000212
vn -1.000000 0.000000 0.000000
vn -1.000000 0.000000 0.000000
vn -1.000000 -0.000058 0.000060
vn -1.000000 -0.000058 0.000060
vn -1.000000 0.000055 -0.000475
vn -1.000000 0.000055 -0.000475
vn -1.000000 0.000122 -0.000334
vn -1.000000 0.000123 -0.000336
vn -1.000000 0.000033 0.000096
vn -1.000000 0.000032 0.000092
vn -1.000000 0.000055 -0.000475
vn -1.000000 0.000055 -0.000475
vn -1.000000 0.000000 0.000000
vn -1.000000 0.000000 0.000000
vn -1.000000 0.000000 0.000000
vn -1.000000 0.000000 0.000000
vn -1.000000 0.000000 0.000000
vn -1.000000 0.000000 0.000000
vn -1.000000 -0.000001 -0.000687
vn -1.000000 -0.000001 -0.000687
vn -1.000000 -0.000001 -0.000685
vn -1.000000 -0.000001 -0.000685
vn -1.000000 0.000000 0.000000
vn -1.000000 0.000000 0.000000
vn -1.000000 -0.000001 -0.000687
vn -1.000000 -0.000001 -0.000687
vn -1.000000 -0.000001 -0.000685
vn -1.000000 -0.000001 -0.000685
vn -1.000000 0.000000 0.000000
vn -1.000000 0.000000 0.000000
vn -1.000000 0.000000 0.000715
vn -1.000000 0.000000 0.000715
vn -1.000000 -0.000001 0.000713
vn -1.000000 -0.000001 0.000713
vn -1.000000 0.000000 0.000000
vn -1.000000 0.000000 0.000000
vn -1.000000 0.000000 0.000715
vn -1.000000 0.000000 0.000715
vn -1.000000 -0.000001 0.000713
vn -1.000000 -0.000001 0.000713
vn -1.000000 0.000000 -0.000221
vn -1.000000 -0.000001 -0.000219
vn -1.000000 0.000059 0.000290
vn -1.000000 0.000059 0.000290

f 1/1/1 2/2/2 4/3/3 3/4/4
f 5/5/5 6/6/6 8/7/7 7/8/8
f 9/9/9 10/10/10 24/11/11 25/12/12
f 22/13/13 23/14/14 11/15/15 15/16/16
f 2/17/17 16/18/18 36/19/19 4/20/20
f 6/21/21 22/22/22 15/23/23 8/24/24
f 23/25/25 19/26/26 12/27/27 11/28/28
f 19/29/29 20/30/30 21/31/31 12/32/32
f 17/33/33 13/34/34 22/22/35 6/21/36
f 13/35/37 14/36/38 23/14/39 22/13/40
f 14/37/41 18/38/42 19/26/43 23/25/44
f 25/12/45 24/11/46 18/38/47 14/37/48
f 10/39/49 26/40/50 27/41/51 24/42/52
f 26/43/53 28/44/54 31/45/55 27/46/56
f 20/47/57 30/48/58 29/49/59 21/50/60
f 27/46/61 31/45/62 30/48/63 20/47/64
f 32/51/65 1/52/66 3/53/67 35/54/68
f 34/55/69 5/56/70 7/57/71 33/58/72
f 35/54/73 3/53/74 5/56/75 34/55/76
f 4/20/77 36/19/78 13/34/79 17/33/80
