# This file uses centimeters as units for non-parametric coordinates.

mtllib wallwithdoor.mtl
g default
v -0.000365 -0.003932 1.498404
v -0.000365 -0.003932 0.240833
v -0.000365 1.494350 1.498404
v 0.000366 1.494337 0.241482
v 0.000366 0.959708 0.241482
v 0.000366 0.956372 -0.276171
v 0.000366 1.494337 -0.276171
v -0.000365 -0.003932 -0.275811
v -0.000365 -0.003932 -1.491091
v -0.000365 1.494350 -1.491091
v -0.000365 0.953243 -1.491091
v -0.000365 0.959913 1.498404
vt 0.000000 0.000000
vt 1.000000 0.000000
vt 1.000000 0.643300
vt 0.000000 0.643300
vt 0.000000 0.000000
vt 1.000000 0.000000
vt 1.000000 1.000000
vt 0.000000 1.000000
vt 0.000000 0.000000
vt 1.000000 0.000000
vt 1.000000 0.638848
vt 0.000000 0.638848
vt 1.000000 1.000000
vt 0.000000 1.000000
vt 1.000000 1.000000
vt 0.000000 1.000000
vn 1.000000 0.000000 0.000000
vn 1.000000 0.000000 0.000000
vn 1.000000 -0.000244 0.000395
vn 1.000000 -0.000244 0.000395
vn 1.000000 0.000000 0.000000
vn 1.000000 0.000000 0.000000
vn 1.000000 0.000000 0.000000
vn 1.000000 0.000000 0.000000
vn 1.000000 0.000000 0.000000
vn 1.000000 0.000000 0.000000
vn 1.000000 -0.000244 -0.000409
vn 1.000000 -0.000244 -0.000409
vn 1.000000 -0.000244 -0.000409
vn 1.000000 -0.000244 -0.000409
vn 1.000000 0.000000 0.000000
vn 1.000000 0.000000 0.000000
vn 1.000000 -0.000244 0.000395
vn 1.000000 -0.000244 0.000395
vn 1.000000 0.000000 0.000000
vn 1.000000 0.000000 0.000000
s off
g wallwithdoor:Mesh1
usemtl wallwithdoor:initialShadingGroup
f 1/1/1 2/2/2 5/3/3 12/4/4
f 5/5/5 6/6/6 7/7/7 4/8/8
f 8/9/9 9/10/10 11/11/11 6/12/12
f 6/12/13 11/11/14 10/13/15 7/14/16
f 12/4/17 5/3/18 4/15/19 3/16/20
