# This file uses centimeters as units for non-parametric coordinates.

v 38.307027 83.149002 -2.198500
v -20.600674 83.149002 -2.198500
v -18.538973 80.569603 -3.073500
v 8.853127 80.569603 -3.073500
v 36.245227 80.569603 -3.073500
v -23.761874 86.199699 -2.198500
v 41.458425 86.199699 -2.198500
v -29.816775 92.139099 0.051500
v -25.120573 9.451600 0.051400
v 38.307027 9.451600 -2.198600
v 41.458425 9.451600 -2.198600
v -20.600674 9.451600 -2.198600
v -23.761874 9.451600 -2.198600
v -18.538973 12.031000 -3.073600
v 41.458425 9.451600 -1.011100
v 8.853127 12.031000 -3.073600
v 36.245227 12.031000 -3.073600
v 42.817228 9.451600 0.176400
v 45.808225 92.139099 0.176500
v -29.816775 92.139099 0.176500
v -29.763274 2.205500 0.294000
v -29.763274 0.000000 0.294000
v 46.454527 0.000000 0.294000
v 46.454527 2.205500 0.294000
v 49.964525 8.043700 3.136100
v 49.964525 8.043700 0.051500
v 49.964525 9.451600 0.051500
v 49.964525 8.522400 5.386100
v 49.964525 8.972900 5.386100
v -34.889471 8.043700 0.051500
v -34.889471 8.043700 3.136100
v -34.889471 8.522400 5.386100
v -34.889471 9.451600 0.051500
v -34.889471 8.972900 5.386100
v 46.454527 0.000000 0.051500
v 46.454527 2.205500 0.051500
v -29.763274 0.000000 0.051500
v -29.763274 2.205500 0.051500
v -31.668673 4.930000 1.021500
v -31.668673 4.930000 0.051500
v 48.360025 4.930000 0.051500
v 48.360025 4.930000 1.021500
v 45.808225 9.451600 0.051500
v 45.808225 9.451600 0.176500
v -32.869173 6.357100 1.593800
v 49.560426 6.357100 1.593800
v -32.869173 6.357100 0.051500
v 49.560426 6.357100 0.051500
v -29.816775 9.451600 0.176500
v -29.816775 9.451600 0.051500
v -25.120573 9.451600 0.176500
v 42.817228 9.451600 0.176500
v 42.817228 9.451600 0.051400
v -25.120573 9.451600 0.051400
v -25.120573 9.451600 0.176400
v 42.817228 9.451600 0.176400
v -23.761874 86.199699 -2.198500
v 41.458425 86.199699 -2.198500
v -23.761874 86.199699 -1.011000
v -23.761874 86.199699 -1.011000
v 41.458425 86.199699 -2.198500
v 41.458425 86.199699 -1.011000
v 42.817228 9.451600 0.051400
v 42.817228 87.765999 0.051500
v 45.808225 9.451600 0.051400
v 42.817228 87.765999 0.051500
v 45.808225 92.139099 0.051500
v 45.808225 9.451600 0.051400
v 42.817228 87.765999 0.051500
v -25.120573 87.765999 0.051500
v 45.808225 92.139099 0.051500
v -25.120573 87.765999 0.051500
v -29.816775 92.139099 0.051500
v 45.808225 92.139099 0.051500
v -25.120573 9.451600 0.051400
v -29.816775 9.451600 0.051400
v -25.120573 87.765999 0.051500
v -29.816775 9.451600 0.051400
v -29.816775 92.139099 0.051500
v -25.120573 87.765999 0.051500
v -23.761874 9.451600 -2.198600
v -23.761874 9.451600 -1.011100
v -20.600674 9.451600 -2.198600
v -20.600674 9.451600 -2.198600
v -23.761874 9.451600 -1.011100
v 38.307027 9.451600 -2.198600
v 38.307027 9.451600 -2.198600
v -23.761874 9.451600 -1.011100
v 41.458425 9.451600 -1.011100
v 41.458425 9.451600 -1.011100
v -23.761874 9.451600 -1.011100
v 42.817228 9.451600 0.051400
v 42.817228 9.451600 0.051400
v -23.761874 9.451600 -1.011100
v -25.120573 9.451600 0.051400
v 42.817228 87.765999 0.051500
v -25.120573 87.765999 0.051500
v 41.458425 86.199699 -1.011000
v 41.458425 86.199699 -1.011000
v -25.120573 87.765999 0.051500
v -23.761874 86.199699 -1.011000
v -23.761874 9.451600 -1.011100
v -23.761874 9.451600 -2.198600
v -23.761874 86.199699 -1.011000
v -23.761874 86.199699 -1.011000
v -23.761874 9.451600 -2.198600
v -23.761874 86.199699 -2.198500
v 41.458425 9.451600 -1.011100
v 42.817228 9.451600 0.051400
v 41.458425 86.199699 -1.011000
v 41.458425 86.199699 -1.011000
v 42.817228 9.451600 0.051400
v 42.817228 87.765999 0.051500
v -25.120573 87.765999 0.051500
v -25.120573 9.451600 0.051400
v -23.761874 86.199699 -1.011000
v -23.761874 86.199699 -1.011000
v -25.120573 9.451600 0.051400
v -23.761874 9.451600 -1.011100
v 41.458425 86.199699 -2.198500
v 41.458425 9.451600 -1.011100
v 41.458425 86.199699 -1.011000
v -25.120573 9.451600 0.176400
v -25.120573 9.451600 0.051400
v -25.120573 87.765999 0.176500
v -25.120573 87.765999 0.176500
v -25.120573 9.451600 0.051400
v -25.120573 87.765999 0.051500
v 42.817228 9.451600 0.176400
v 45.808225 9.451600 0.176400
v 42.817228 87.765999 0.176500
v 42.817228 87.765999 0.176500
v 45.808225 9.451600 0.176400
v 45.808225 92.139099 0.176500
v 42.817228 87.765999 0.176500
v 45.808225 92.139099 0.176500
v -25.120573 87.765999 0.176500
v -25.120573 87.765999 0.176500
v 45.808225 92.139099 0.176500
v -29.816775 92.139099 0.176500
v -25.120573 9.451600 0.176400
v -25.120573 87.765999 0.176500
v -29.816775 9.451600 0.176400
v -29.816775 9.451600 0.176400
v -25.120573 87.765999 0.176500
v -29.816775 92.139099 0.176500
v -25.120573 9.451600 0.051400
v -25.120573 9.451600 0.176400
v -29.816775 9.451600 0.051400
v -25.120573 9.451600 0.176400
v -29.816775 9.451600 0.176400
v -29.816775 9.451600 0.051400
v -25.120573 87.765999 0.051500
v 42.817228 87.765999 0.051500
v -25.120573 87.765999 0.176500
v -25.120573 87.765999 0.176500
v 42.817228 87.765999 0.051500
v 42.817228 87.765999 0.176500
v 42.817228 87.765999 0.051500
v 42.817228 9.451600 0.051400
v 42.817228 87.765999 0.176500
v 42.817228 87.765999 0.176500
v 42.817228 9.451600 0.051400
v 42.817228 9.451600 0.176400
v 45.808225 9.451600 0.051400
v 45.808225 9.451600 0.176400
v 42.817228 9.451600 0.051400
v 45.808225 9.451600 0.176400
v 42.817228 9.451600 0.176400
v 42.817228 9.451600 0.051400
v 45.808225 9.451600 0.176400
v 45.808225 9.451600 0.051400
v 45.808225 92.139099 0.176500
v 45.808225 92.139099 0.176500
v 45.808225 9.451600 0.051400
v 45.808225 92.139099 0.051500
v 45.808225 92.139099 0.051500
v -29.816775 92.139099 0.051500
v 45.808225 92.139099 0.176500
v -29.816775 92.139099 0.051500
v -29.816775 9.451600 0.051400
v -29.816775 92.139099 0.176500
v -29.816775 92.139099 0.176500
v -29.816775 9.451600 0.051400
v -29.816775 9.451600 0.176400
vt 0.580200 0.814300
vt 0.240500 0.814300
vt 0.252400 0.792100
vt 0.410400 0.792100
vt 0.568300 0.792100
vt 0.222300 0.840600
vt 0.598400 0.840600
vt 0.580200 0.180100
vt 0.598400 0.180100
vt 0.240500 0.180100
vt 0.222300 0.180100
vt 0.252400 0.202300
vt 0.240500 0.193600
vt 0.580200 0.193600
vt 0.598400 0.193600
vt 0.252400 0.215700
vt 0.410400 0.215700
vt 0.568300 0.215700
vt 0.568300 0.202300
vt 0.214500 0.180100
vt 0.623400 0.891700
vt 0.187400 0.891700
vt 0.598400 0.193600
vt 0.598400 0.180100
vt 0.187400 0.891700
vt 0.606200 0.180100
vt 0.187700 0.117700
vt 0.187700 0.098700
vt 0.627200 0.098700
vt 0.627200 0.117700
vt 0.647400 0.168000
vt 0.647400 0.168000
vt 0.647400 0.180100
vt 0.647400 0.172100
vt 0.647400 0.176000
vt 0.158100 0.168000
vt 0.158100 0.168000
vt 0.158100 0.172100
vt 0.158100 0.180100
vt 0.158100 0.176000
vt 0.627200 0.098700
vt 0.627200 0.117700
vt 0.187700 0.098700
vt 0.627200 0.098700
vt 0.187700 0.117700
vt 0.187700 0.098700
vt 0.187700 0.117700
vt 0.176700 0.141200
vt 0.176700 0.141200
vt 0.627200 0.117700
vt 0.638200 0.141200
vt 0.638200 0.141200
vt 0.638200 0.141200
vt 0.623400 0.180100
vt 0.623400 0.180100
vt 0.158100 0.168000
vt 0.158100 0.168000
vt 0.169800 0.153400
vt 0.645100 0.153400
vt 0.176700 0.141200
vt 0.169800 0.153400
vt 0.638200 0.141200
vt 0.638200 0.141200
vt 0.645100 0.153400
vt 0.187400 0.180100
vt 0.187400 0.180100
vt 0.214500 0.180100
vt 0.606200 0.180100
vt 0.623400 0.180100
vt 0.645100 0.153400
vt 0.647400 0.168000
vt 0.187400 0.180100
vt 0.158100 0.168000
vt 0.169800 0.153400
vt 0.627200 0.117700
vt 0.645100 0.153400
vt 0.647400 0.168000
vt 0.627200 0.117700
vt 0.627200 0.098700
vt 0.187700 0.098700
vt 0.187700 0.098700
vt 0.187700 0.117700
vt 0.187400 0.180100
vt 0.187400 0.180100
vt 0.187700 0.117700
vt 0.176700 0.141200
vt 0.169800 0.153400
vt 0.187400 0.180100
vt 0.169800 0.153400
vt 0.187400 0.180100
vt 0.623400 0.180100
vt 0.623400 0.180100
vt 0.606200 0.180100
vt 0.214500 0.180100
vt 0.214500 0.180100
vt 0.606200 0.180100
vt 0.222300 0.840600
vt 0.598400 0.840600
vt 0.222300 0.840600
vt 0.222300 0.840600
vt 0.598400 0.840600
vt 0.598400 0.840600
vt 0.448100 0.081300
vt 0.448100 0.755300
vt 0.465300 0.081300
vt 0.448100 0.755300
vt 0.465300 0.793000
vt 0.465300 0.081300
vt 0.448100 0.755300
vt 0.056300 0.755300
vt 0.465300 0.793000
vt 0.056300 0.755300
vt 0.029200 0.793000
vt 0.465300 0.793000
vt 0.056300 0.081300
vt 0.029200 0.081300
vt 0.056300 0.755300
vt 0.029200 0.081300
vt 0.029200 0.793000
vt 0.056300 0.755300
vt 0.222300 0.193600
vt 0.222300 0.193600
vt 0.240500 0.193600
vt 0.240500 0.193600
vt 0.222300 0.193600
vt 0.580200 0.193600
vt 0.580200 0.193600
vt 0.222300 0.193600
vt 0.598400 0.193600
vt 0.598400 0.193600
vt 0.222300 0.193600
vt 0.606200 0.193600
vt 0.606200 0.193600
vt 0.222300 0.193600
vt 0.214500 0.193600
vt 0.606200 0.854100
vt 0.214500 0.854100
vt 0.598400 0.840600
vt 0.598400 0.840600
vt 0.214500 0.854100
vt 0.222300 0.840600
vt 0.222300 0.180100
vt 0.222300 0.180100
vt 0.222300 0.840600
vt 0.222300 0.840600
vt 0.222300 0.180100
vt 0.222300 0.840600
vt 0.598400 0.180100
vt 0.606200 0.180100
vt 0.598400 0.840600
vt 0.598400 0.840600
vt 0.606200 0.180100
vt 0.606200 0.854100
vt 0.214500 0.854100
vt 0.214500 0.180100
vt 0.222300 0.840600
vt 0.222300 0.840600
vt 0.214500 0.180100
vt 0.222300 0.180100
vt 0.598400 0.840600
vt 0.598400 0.180100
vt 0.598400 0.840600
vt 0.214500 0.180100
vt 0.214500 0.180100
vt 0.214500 0.854100
vt 0.214500 0.854100
vt 0.214500 0.180100
vt 0.214500 0.854100
vt 0.606200 0.180100
vt 0.623400 0.180100
vt 0.606200 0.854100
vt 0.606200 0.854100
vt 0.623400 0.180100
vt 0.623400 0.891700
vt 0.606200 0.854100
vt 0.623400 0.891700
vt 0.214500 0.854100
vt 0.214500 0.854100
vt 0.623400 0.891700
vt 0.187400 0.891700
vt 0.214500 0.180100
vt 0.214500 0.854100
vt 0.187400 0.180100
vt 0.187400 0.180100
vt 0.214500 0.854100
vt 0.187400 0.891700
vt 0.214500 0.180100
vt 0.214500 0.180100
vt 0.187400 0.180100
vt 0.214500 0.180100
vt 0.187400 0.180100
vt 0.187400 0.180100
vt 0.214500 0.854100
vt 0.606200 0.854100
vt 0.214500 0.854100
vt 0.214500 0.854100
vt 0.606200 0.854100
vt 0.606200 0.854100
vt 0.606200 0.854100
vt 0.606200 0.180100
vt 0.606200 0.854100
vt 0.606200 0.854100
vt 0.606200 0.180100
vt 0.606200 0.180100
vt 0.623400 0.180100
vt 0.623400 0.180100
vt 0.606200 0.180100
vt 0.623400 0.180100
vt 0.606200 0.180100
vt 0.606200 0.180100
vt 0.623400 0.180100
vt 0.623400 0.180100
vt 0.623400 0.891700
vt 0.623400 0.891700
vt 0.623400 0.180100
vt 0.623400 0.891700
vt 0.623400 0.891700
vt 0.187400 0.891700
vt 0.623400 0.891700
vt 0.187400 0.891700
vt 0.187400 0.180100
vt 0.187400 0.891700
vt 0.187400 0.891700
vt 0.187400 0.180100
vt 0.187400 0.180100
vn 0.000000 -0.321246 0.946996
vn 0.000000 -0.321246 0.946996
vn 0.000000 -0.321246 0.946996
vn 0.000000 -0.321245 0.946996
vn 0.000000 -0.321204 0.947010
vn 0.000000 -0.321204 0.947010
vn 0.000000 -0.321204 0.947010
vn 0.000000 -1.000000 0.000000
vn 0.000000 -1.000000 0.000000
vn 0.000000 -1.000000 0.000000
vn 0.000000 -1.000000 0.000000
vn 0.000000 -1.000000 0.000000
vn 0.000000 -1.000000 0.000000
vn 0.000000 0.000000 -1.000000
vn 0.000000 0.000000 -1.000000
vn 0.000000 0.000000 -1.000000
vn 0.000000 0.000000 -1.000000
vn 0.000000 0.000000 -1.000000
vn 0.000000 0.000000 -1.000000
vn 0.000000 0.000000 -1.000000
vn 0.000000 0.000000 -1.000000
vn 0.000000 0.000000 -1.000000
vn 0.000000 0.000000 -1.000000
vn 0.000000 0.000000 -1.000000
vn 0.000000 0.000000 -1.000000
vn 0.000000 0.000000 -1.000000
vn 0.000000 0.000000 -1.000000
vn 0.000000 0.000000 -1.000000
vn 0.000000 0.000000 -1.000000
vn 0.000000 0.000000 -1.000000
vn 0.000000 0.000000 -1.000000
vn 0.000000 0.000000 1.000000
vn 0.000000 0.000000 1.000000
vn 0.000000 0.000000 1.000000
vn 0.000000 0.000000 1.000000
vn 0.000000 0.000000 1.000000
vn 0.000000 0.000000 1.000000
vn 0.000000 0.000000 1.000000
vn 0.000000 0.000000 1.000000
vn 0.000000 0.000000 1.000000
vn 0.000000 0.000000 1.000000
vn 0.000000 0.000000 1.000000
vn 0.000000 0.000000 1.000000
vn 0.390707 0.000000 0.920515
vn 0.390707 0.000000 0.920515
vn 0.390707 0.000000 0.920515
vn 0.390707 0.000000 0.920515
vn 0.000000 1.000000 0.000000
vn 0.000000 1.000000 0.000000
vn 0.000000 1.000000 0.000000
vn 0.000000 1.000000 0.000000
vn 0.000000 1.000000 0.000000
vn 0.000000 1.000000 0.000000
vn 0.000000 1.000000 0.000000
vn 0.000000 1.000000 0.000000
vn 0.000000 1.000000 0.000000
vn 0.000000 1.000000 0.000000
vn 0.000000 1.000000 0.000000
vn 0.000000 1.000000 0.000000
vn 0.000000 1.000000 0.000000
vn 0.000000 1.000000 0.000000
vn 0.000000 1.000000 0.000000
vn 0.000000 1.000000 0.000000
vn 0.000000 1.000000 0.000000
vn 0.000000 1.000000 0.000000
vn 0.000000 0.321204 0.947010
vn 0.000000 0.321204 0.947010
vn 0.000000 0.321204 0.947010
vn 0.000000 0.321204 0.947010
vn 0.000000 0.321204 0.947010
vn 0.000000 0.321204 0.947010
vn 0.000000 0.321204 0.947010
vn -0.390707 0.000000 0.920515
vn -0.390707 0.000000 0.920515
vn -0.390707 0.000000 0.920515
vn -0.390707 0.000000 0.920515
vn 0.000000 -0.561374 0.827562
vn 0.000000 -0.561374 0.827562
vn 0.000000 -0.561374 0.827562
vn 0.000000 -0.561374 0.827562
vn 0.000000 -0.561374 0.827562
vn 0.000000 -0.561374 0.827562
vn 1.000000 0.000000 0.000000
vn 1.000000 0.000000 0.000000
vn 1.000000 0.000000 0.000000
vn 1.000000 0.000000 0.000000
vn 1.000000 0.000000 0.000000
vn 1.000000 0.000000 0.000000
vn -0.615974 0.000000 0.787767
vn -0.615974 0.000000 0.787767
vn -0.615974 0.000000 0.787767
vn -0.615974 0.000000 0.787767
vn -0.615974 0.000000 0.787767
vn -0.615974 0.000000 0.787767
vn 0.615974 0.000000 0.787767
vn 0.615974 0.000000 0.787767
vn 0.615974 0.000000 0.787767
vn 0.615974 0.000000 0.787767
vn 0.615974 0.000000 0.787767
vn 0.615974 0.000000 0.787767
vn -1.000000 0.000000 0.000000
vn -1.000000 0.000000 0.000000
vn -1.000000 0.000000 0.000000
vn -1.000000 0.000000 0.000000
vn -1.000000 0.000000 0.000000
vn -1.000000 0.000000 0.000000
vn 1.000000 0.000000 0.000000
vn 1.000000 0.000000 0.000000
vn 1.000000 0.000000 0.000000
vn 1.000000 0.000000 0.000000
vn 1.000000 0.000000 0.000000
vn 1.000000 0.000000 0.000000
vn 0.000000 0.000000 1.000000
vn 0.000000 0.000000 1.000000
vn 0.000000 0.000000 1.000000
vn 0.000000 0.000000 1.000000
vn 0.000000 0.000000 1.000000
vn 0.000000 0.000000 1.000000
vn 0.000000 0.000000 1.000000
vn 0.000000 0.000000 1.000000
vn 0.000000 0.000000 1.000000
vn 0.000000 0.000000 1.000000
vn 0.000000 0.000000 1.000000
vn 0.000000 0.000000 1.000000
vn 0.000000 0.000000 1.000000
vn 0.000000 0.000000 1.000000
vn 0.000000 0.000000 1.000000
vn 0.000000 0.000000 1.000000
vn 0.000000 0.000000 1.000000
vn 0.000000 0.000000 1.000000
vn 0.000000 -1.000000 0.000000
vn 0.000000 -1.000000 0.000000
vn 0.000000 -1.000000 0.000000
vn 0.000000 -1.000000 0.000000
vn 0.000000 -1.000000 0.000000
vn 0.000000 -1.000000 0.000000
vn 0.000000 -1.000000 0.000000
vn 0.000000 -1.000000 0.000000
vn 0.000000 -1.000000 0.000000
vn 0.000000 -1.000000 0.000000
vn 0.000000 -1.000000 0.000000
vn 0.000000 -1.000000 0.000000
vn -1.000000 0.000000 0.000000
vn -1.000000 0.000000 0.000000
vn -1.000000 0.000000 0.000000
vn -1.000000 0.000000 0.000000
vn -1.000000 0.000000 0.000000
vn -1.000000 0.000000 0.000000
vn 0.000000 -1.000000 0.000000
vn 0.000000 -1.000000 0.000000
vn 0.000000 -1.000000 0.000000
vn 0.000000 -1.000000 0.000000
vn 0.000000 -1.000000 0.000000
vn 0.000000 -1.000000 0.000000
vn 1.000000 0.000000 0.000000
vn 1.000000 0.000000 0.000000
vn 1.000000 0.000000 0.000000
vn 1.000000 0.000000 0.000000
vn 1.000000 0.000000 0.000000
vn 1.000000 0.000000 0.000000
vn 0.000000 1.000000 0.000000
vn 0.000000 1.000000 0.000000
vn 0.000000 1.000000 0.000000
vn 0.000000 1.000000 0.000000
vn 0.000000 1.000000 0.000000
vn 0.000000 1.000000 0.000000
vn -1.000000 0.000000 0.000000
vn -1.000000 0.000000 0.000000
vn -1.000000 0.000000 0.000000
vn -1.000000 0.000000 0.000000
vn -1.000000 0.000000 0.000000
vn -1.000000 0.000000 0.000000
vn 0.000000 1.000000 0.000000
vn 0.000000 1.000000 0.000000
vn 0.000000 1.000000 0.000000
vn 0.000000 1.000000 0.000000
vn 0.000000 1.000000 0.000000
vn 0.000000 1.000000 0.000000
vn 0.000000 0.000000 1.000000
vn 0.000000 0.000000 1.000000
vn 0.000000 0.000000 1.000000
vn 0.000000 0.000000 1.000000
vn 0.726641 -0.085805 -0.681638
vn 0.572787 0.604987 -0.553088
vn 0.781142 -0.556830 0.282415
vn 0.589197 -0.508397 0.627997
vn 0.589197 -0.508397 0.627997
vn 0.572787 0.604987 -0.553088
vn 0.582417 0.548316 0.600117
vn -0.708502 -0.331501 -0.623002
vn -0.762014 -0.615411 0.201504
vn -0.572787 0.604987 -0.553088
vn -0.589197 -0.508397 0.627997
vn -0.572787 0.604987 -0.553088
vn -0.589197 -0.508397 0.627997
vn -0.582385 0.548386 0.600084
vn -0.582385 0.548386 0.600084
vn -0.589197 -0.508397 0.627997
vn 0.582417 0.548316 0.600117
vn 0.589197 -0.508397 0.627997
vn 0.577350 -0.577350 0.577350
vn 0.577350 -0.577350 -0.577350
vn 0.605370 -0.315684 0.730664
vn 0.595198 -0.187500 -0.781398
vn -0.577350 -0.577350 0.577350
vn -0.577350 -0.577350 -0.577350
vn 0.577350 -0.577350 0.577350
vn 0.577350 -0.577350 -0.577350
vn -0.595198 -0.187500 -0.781398
vn -0.577350 -0.577350 -0.577350
vn -0.605370 -0.315684 0.730664
vn -0.577350 -0.577350 0.577350
vn -0.595198 -0.187500 -0.781398
vn -0.605370 -0.315684 0.730664
vn -0.552669 -0.424376 -0.717260
vn -0.508781 -0.613377 0.604078
vn 0.595198 -0.187500 -0.781398
vn 0.552669 -0.424376 -0.717260
vn 0.605370 -0.315684 0.730664
vn 0.508781 -0.613377 0.604078
vn 0.508781 -0.613377 0.604078
vn -0.508781 -0.613377 0.604078
vn 0.605370 -0.315684 0.730664
vn -0.605370 -0.315684 0.730664
vn 0.582417 0.548316 0.600117
vn 0.572787 0.604987 -0.553088
vn 0.017400 0.715893 -0.697993
vn 0.582417 0.548316 0.600117
vn 0.017400 0.715893 -0.697993
vn 0.045002 0.998448 0.032802
vn -0.762014 -0.615411 0.201504
vn 0.781142 -0.556830 0.282415
vn -0.589197 -0.508397 0.627997
vn 0.589197 -0.508397 0.627997
vn -0.762014 -0.615411 0.201504
vn -0.420394 -0.782390 0.459494
vn 0.781142 -0.556830 0.282415
vn 0.667901 -0.597601 0.443601
vn -0.552669 -0.424376 -0.717260
vn -0.508781 -0.613377 0.604078
vn -0.484312 -0.486112 -0.727418
vn -0.420394 -0.782390 0.459494
vn 0.667901 -0.597601 0.443601
vn -0.420394 -0.782390 0.459494
vn 0.508781 -0.613377 0.604078
vn -0.508781 -0.613377 0.604078
vn 0.552669 -0.424376 -0.717260
vn 0.671683 -0.338891 -0.658783
vn 0.508781 -0.613377 0.604078
vn 0.667901 -0.597601 0.443601
vn -0.582385 0.548386 0.600084
vn -0.035499 0.998784 0.034199
vn -0.016299 0.714967 -0.698968
vn 0.000000 0.998951 0.045798
vn 0.000000 0.998951 0.045798
vn -0.582385 0.548386 0.600084
vn -0.035499 0.998784 0.034199
vn -0.582385 0.548386 0.600084
vn 0.582417 0.548316 0.600117
vn 0.000000 0.998951 0.045798
vn 0.045002 0.998448 0.032802
vn 0.671683 -0.338891 -0.658783
vn 0.726641 -0.085805 -0.681638
vn 0.667901 -0.597601 0.443601
vn 0.781142 -0.556830 0.282415
vn -0.582385 0.548386 0.600084
vn -0.016299 0.714967 -0.698968
vn -0.572787 0.604987 -0.553088
vn -0.762014 -0.615411 0.201504
vn -0.708502 -0.331501 -0.623002
vn -0.420394 -0.782390 0.459494
vn -0.484312 -0.486112 -0.727418
vn 0.595198 -0.187500 -0.781398
vn 0.017400 0.715893 -0.697993
vn 0.552669 -0.424376 -0.717260
vn 0.572787 0.604987 -0.553088
vn 0.552669 -0.424376 -0.717260
vn 0.572787 0.604987 -0.553088
vn 0.671683 -0.338891 -0.658783
vn 0.726641 -0.085805 -0.681638
vn 0.577350 -0.577350 -0.577350
vn -0.577350 -0.577350 -0.577350
vn 0.595198 -0.187500 -0.781398
vn 0.017400 0.715893 -0.697993
vn -0.577350 -0.577350 -0.577350
vn -0.595198 -0.187500 -0.781398
vn 0.017400 0.715893 -0.697993
vn -0.016299 0.714967 -0.698968
vn -0.595198 -0.187500 -0.781398
vn -0.552669 -0.424376 -0.717260
vn -0.016299 0.714967 -0.698968
vn -0.484312 -0.486112 -0.727418
vn -0.016299 0.714967 -0.698968
vn -0.484312 -0.486112 -0.727418
vn -0.572787 0.604987 -0.553088
vn -0.708502 -0.331501 -0.623002
vn 0.017400 0.715893 -0.697993
vn -0.016299 0.714967 -0.698968
vn 0.045002 0.998448 0.032802
vn -0.035499 0.998784 0.034199
vn 0.045002 0.998448 0.032802
vn -0.035499 0.998784 0.034199
vn 0.000000 0.998951 0.045798
vn 0.000000 0.998951 0.045798
f 1/1/1 2/2/2 4/4/3
f 4/4/3 2/2/2 3/3/4
f 1/1/5 4/4/6 5/5/7
f 57/97/8 58/98/9 59/99/10
f 60/100/11 61/101/12 62/102/13
f 63/103/14 64/104/15 65/105/16
f 66/106/17 67/107/18 68/108/19
f 69/109/20 70/110/21 71/111/22
f 72/112/23 73/113/24 74/114/25
f 75/115/26 76/116/27 77/117/28
f 78/118/29 79/119/30 80/120/31
f 10/8/32 11/9/33 1/1/34
f 1/1/34 11/9/33 7/7/35
f 2/2/36 1/1/37 6/6/38
f 6/6/38 1/1/37 7/7/39
f 12/10/40 2/2/41 13/11/42
f 13/11/42 2/2/41 6/6/43
f 2/2/44 12/10/45 3/3/46
f 3/3/46 12/10/45 14/12/47
f 81/121/48 82/122/49 83/123/50
f 84/124/51 85/125/52 86/126/53
f 11/15/54 10/14/55 15/23/56
f 87/127/57 88/128/58 89/129/59
f 90/130/60 91/131/61 92/132/62
f 93/133/63 94/134/64 95/135/65
f 14/16/66 12/13/67 16/17/68
f 16/17/68 12/13/67 10/14/69
f 16/17/70 10/14/71 17/18/72
f 5/5/73 17/19/74 1/1/75
f 1/1/75 17/19/74 10/8/76
f 96/136/77 97/137/78 98/138/79
f 99/139/80 100/140/81 101/141/82
f 102/142/83 103/143/84 104/144/85
f 105/145/86 106/146/87 107/147/88
f 108/148/89 109/149/90 110/150/91
f 111/151/92 112/152/93 113/153/94
f 114/154/95 115/155/96 116/156/97
f 117/157/98 118/158/99 119/159/100
f 11/9/101 15/24/102 7/7/103
f 120/160/104 121/161/105 122/162/106
f 123/163/107 124/164/108 125/165/109
f 126/166/110 127/167/111 128/168/112
f 129/169/113 130/170/114 131/171/115
f 132/172/116 133/173/117 134/174/118
f 135/175/119 136/176/120 137/177/121
f 138/178/122 139/179/123 140/180/124
f 141/181/125 142/182/126 143/183/127
f 144/184/128 145/185/129 146/186/130
f 147/187/131 148/188/132 149/189/133
f 150/190/134 151/191/135 152/192/136
f 153/193/137 154/194/138 155/195/139
f 156/196/140 157/197/141 158/198/142
f 159/199/143 160/200/144 161/201/145
f 162/202/146 163/203/147 164/204/148
f 165/205/149 166/206/150 167/207/151
f 168/208/152 169/209/153 170/210/154
f 171/211/155 172/212/156 173/213/157
f 174/214/158 175/215/159 176/216/160
f 177/217/161 178/218/162 179/219/163
f 19/21/164 8/25/165 20/22/166
f 180/220/167 181/221/168 182/222/169
f 183/223/170 184/224/171 185/225/172
f 53/93/173 9/20/174 18/26/175
f 56/96/176 54/94/177 55/95/178
f 21/27/179 22/28/180 24/30/181
f 24/30/181 22/28/180 23/29/182
f 26/32/183 27/33/184 25/31/185
f 25/31/185 27/33/184 28/34/186
f 28/34/187 27/33/188 29/35/189
f 30/36/190 31/37/191 33/39/192
f 33/39/192 31/37/191 32/38/193
f 33/39/194 32/38/195 34/40/196
f 34/40/197 32/38/198 29/35/199
f 29/35/199 32/38/198 28/34/200
f 23/29/201 35/41/202 24/30/203
f 24/30/203 35/41/202 36/42/204
f 22/28/205 37/43/206 23/29/207
f 23/29/207 37/43/206 35/44/208
f 38/45/209 37/46/210 21/27/211
f 21/27/211 37/46/210 22/28/212
f 38/47/213 21/27/214 40/49/215
f 40/49/215 21/27/214 39/48/216
f 36/50/217 41/51/218 24/30/219
f 24/30/219 41/51/218 42/52/220
f 42/53/221 39/48/222 24/30/223
f 24/30/223 39/48/222 21/27/224
f 29/35/225 27/33/226 43/54/227
f 29/35/228 43/54/229 44/55/230
f 31/56/231 25/31/232 32/38/233
f 32/38/233 25/31/232 28/34/234
f 31/57/235 45/58/236 25/31/237
f 25/31/237 45/58/236 46/59/238
f 40/60/239 39/48/240 47/61/241
f 47/61/241 39/48/240 45/58/242
f 46/59/243 45/58/244 42/62/245
f 42/62/245 45/58/244 39/48/246
f 41/51/247 48/64/248 42/63/249
f 42/63/249 48/64/248 46/59/250
f 34/40/251 49/65/252 50/66/253
f 52/68/254 51/67/255 34/40/256
f 51/67/255 49/65/257 34/40/256
f 34/40/258 29/35/259 52/68/260
f 44/69/261 52/68/260 29/35/259
f 48/70/262 26/71/263 46/59/264
f 46/59/264 26/71/263 25/31/265
f 34/40/266 50/72/267 33/39/268
f 31/73/269 30/36/270 45/58/271
f 45/58/271 30/36/270 47/74/272
f 36/75/273 43/54/274 41/51/275
f 41/51/275 43/54/274 27/33/276
f 41/51/277 27/33/278 48/76/279
f 48/76/279 27/33/278 26/77/280
f 35/79/281 37/80/282 36/78/283
f 43/54/284 36/78/283 37/80/282
f 37/81/285 38/82/286 43/54/287
f 43/54/287 38/82/286 50/83/288
f 38/85/289 40/86/290 50/84/291
f 50/84/291 40/86/290 47/87/292
f 50/88/293 47/89/294 33/39/295
f 33/39/295 47/89/294 30/36/296
f 43/54/297 50/90/298 44/91/299
f 44/91/299 50/90/298 49/65/300
f 44/92/301 49/65/302 52/68/303
f 49/65/302 51/67/304 52/68/303
