# This file uses centimeters as units for non-parametric coordinates.

v 4.842000 78.018402 -3.136000
v 4.842000 58.018398 -3.136100
v 14.592000 58.018398 -3.136100
v 14.592000 78.018402 -3.136000
v 4.842000 78.018402 -3.073500
v 4.842000 58.018398 -3.073600
v 14.592000 58.018398 -3.073600
v 14.592000 78.018402 -3.073500
v 4.842000 35.580898 -3.136000
v 4.842000 15.580900 -3.136100
v 14.592000 15.580900 -3.136100
v 14.592000 35.580898 -3.136000
v 4.842000 35.580898 -3.073500
v 4.842000 15.580900 -3.073600
v 14.592000 15.580900 -3.073600
v 14.592000 35.580898 -3.073500
v 26.029499 35.580898 -3.136100
v 26.029499 15.580900 -3.136000
v 16.279499 15.580900 -3.136000
v 16.279499 35.580898 -3.136100
v 26.029499 35.580898 -3.073600
v 26.029499 15.580900 -3.073500
v 16.279499 15.580900 -3.073500
v 16.279499 35.580898 -3.073600
v 26.029499 56.330898 -3.136100
v 26.029499 36.330898 -3.136000
v 16.279499 36.330898 -3.136000
v 16.279499 56.330898 -3.136100
v 26.029499 56.330898 -3.073600
v 26.029499 36.330898 -3.073500
v 16.279499 36.330898 -3.073500
v 16.279499 56.330898 -3.073600
v 26.029499 78.018402 -3.136100
v 26.029499 58.018398 -3.136100
v 16.279499 58.018398 -3.136100
v 16.279499 78.018402 -3.136100
v 26.029499 78.018402 -3.073600
v 26.029499 58.018398 -3.073600
v 16.279499 58.018398 -3.073600
v 16.279499 78.018402 -3.073600
v 4.842000 56.330898 -3.136000
v 4.842000 36.330898 -3.136100
v 14.592000 36.330898 -3.136100
v 14.592000 56.330898 -3.136000
v 4.842000 56.330898 -3.073500
v 4.842000 36.330898 -3.073600
v 14.592000 36.330898 -3.073600
v 14.592000 56.330898 -3.073500
v -2.210700 78.018402 -3.136100
v -2.210700 58.018398 -3.136100
v -11.960700 58.018398 -3.136100
v -11.960700 78.018402 -3.136100
v -2.210700 78.018402 -3.073600
v -2.210700 58.018398 -3.073600
v -11.960700 58.018398 -3.073600
v -11.960700 78.018402 -3.073600
v -2.210700 35.580898 -3.136100
v -2.210700 15.580900 -3.136000
v -11.960700 15.580900 -3.136000
v -11.960700 35.580898 -3.136100
v -2.210700 35.580898 -3.073600
v -2.210700 15.580900 -3.073500
v -11.960700 15.580900 -3.073500
v -11.960700 35.580898 -3.073600
v -23.398199 35.580898 -3.136000
v -23.398199 15.580900 -3.136100
v -13.648200 15.580900 -3.136100
v -13.648200 35.580898 -3.136000
v -23.398199 35.580898 -3.073500
v -23.398199 15.580900 -3.073600
v -13.648200 15.580900 -3.073600
v -13.648200 35.580898 -3.073500
v -23.398199 56.330898 -3.136000
v -23.398199 36.330898 -3.136100
v -13.648200 36.330898 -3.136100
v -13.648200 56.330898 -3.136000
v -23.398199 56.330898 -3.073500
v -23.398199 36.330898 -3.073600
v -13.648200 36.330898 -3.073600
v -13.648200 56.330898 -3.073500
v -23.398199 78.018402 -3.136000
v -23.398199 58.018398 -3.136100
v -13.648200 58.018398 -3.136100
v -13.648200 78.018402 -3.136000
v -23.398199 78.018402 -3.073500
v -23.398199 58.018398 -3.073600
v -13.648200 58.018398 -3.073600
v -13.648200 78.018402 -3.073500
v -2.210700 56.330898 -3.136100
v -2.210700 36.330898 -3.136000
v -11.960700 36.330898 -3.136000
v -11.960700 56.330898 -3.136100
v -2.210700 56.330898 -3.073600
v -2.210700 36.330898 -3.073500
v -11.960700 36.330898 -3.073500
v -11.960700 56.330898 -3.073600
vt 0.267900 0.770200
vt 0.267900 0.598000
vt 0.324100 0.598000
vt 0.324100 0.770200
vt 0.267900 0.770200
vt 0.267900 0.598000
vt 0.324100 0.598000
vt 0.324100 0.770200
vt 0.267900 0.770200
vt 0.267900 0.598000
vt 0.324100 0.598000
vt 0.324100 0.770200
vt 0.267900 0.770200
vt 0.267900 0.598000
vt 0.324100 0.598000
vt 0.324100 0.770200
vt 0.324100 0.770200
vt 0.324100 0.598000
vt 0.267900 0.598000
vt 0.267900 0.770200
vt 0.324100 0.770200
vt 0.324100 0.598000
vt 0.267900 0.598000
vt 0.267900 0.770200
vt 0.324100 0.770200
vt 0.324100 0.598000
vt 0.267900 0.598000
vt 0.267900 0.770200
vt 0.324100 0.770200
vt 0.324100 0.598000
vt 0.267900 0.598000
vt 0.267900 0.770200
vt 0.324100 0.770200
vt 0.324100 0.598000
vt 0.267900 0.598000
vt 0.267900 0.770200
vt 0.324100 0.770200
vt 0.324100 0.598000
vt 0.267900 0.598000
vt 0.267900 0.770200
vt 0.267900 0.770200
vt 0.267900 0.598000
vt 0.324100 0.598000
vt 0.324100 0.770200
vt 0.267900 0.770200
vt 0.267900 0.598000
vt 0.324100 0.598000
vt 0.324100 0.770200
vt 0.324100 0.770200
vt 0.324100 0.598000
vt 0.267900 0.598000
vt 0.267900 0.770200
vt 0.324100 0.770200
vt 0.324100 0.598000
vt 0.267900 0.598000
vt 0.267900 0.770200
vt 0.324100 0.770200
vt 0.324100 0.598000
vt 0.267900 0.598000
vt 0.267900 0.770200
vt 0.324100 0.770200
vt 0.324100 0.598000
vt 0.267900 0.598000
vt 0.267900 0.770200
vt 0.267900 0.770200
vt 0.267900 0.598000
vt 0.324100 0.598000
vt 0.324100 0.770200
vt 0.267900 0.770200
vt 0.267900 0.598000
vt 0.324100 0.598000
vt 0.324100 0.770200
vt 0.267900 0.770200
vt 0.267900 0.598000
vt 0.324100 0.598000
vt 0.324100 0.770200
vt 0.267900 0.770200
vt 0.267900 0.598000
vt 0.324100 0.598000
vt 0.324100 0.770200
vt 0.267900 0.770200
vt 0.267900 0.598000
vt 0.324100 0.598000
vt 0.324100 0.770200
vt 0.267900 0.770200
vt 0.267900 0.598000
vt 0.324100 0.598000
vt 0.324100 0.770200
vt 0.324100 0.770200
vt 0.324100 0.598000
vt 0.267900 0.598000
vt 0.267900 0.770200
vt 0.324100 0.770200
vt 0.324100 0.598000
vt 0.267900 0.598000
vt 0.267900 0.770200
vn 0.000000 -0.000005 1.000000
vn 0.000000 -0.000005 1.000000
vn 0.000000 -0.000005 1.000000
vn 0.000000 -0.000005 1.000000
vn 0.000000 0.000000 1.000000
vn 0.000000 0.000000 1.000000
vn 0.000000 0.000000 1.000000
vn 0.000000 0.000000 1.000000
vn 0.000000 -0.000005 1.000000
vn 0.000000 -0.000005 1.000000
vn 0.000000 -0.000005 1.000000
vn 0.000000 -0.000005 1.000000
vn 0.000000 0.000000 1.000000
vn 0.000000 0.000000 1.000000
vn 0.000000 0.000000 1.000000
vn 0.000000 0.000000 1.000000
vn 0.000000 0.000005 1.000000
vn 0.000000 0.000005 1.000000
vn 0.000000 0.000005 1.000000
vn 0.000000 0.000005 1.000000
vn 0.000000 0.000000 1.000000
vn 0.000000 0.000000 1.000000
vn 0.000000 0.000000 1.000000
vn 0.000000 0.000000 1.000000
vn 0.000000 0.000005 1.000000
vn 0.000000 0.000005 1.000000
vn 0.000000 0.000005 1.000000
vn 0.000000 0.000005 1.000000
vn 0.000000 0.000000 1.000000
vn 0.000000 0.000000 1.000000
vn 0.000000 0.000000 1.000000
vn 0.000000 0.000000 1.000000
vn 0.000000 0.000000 1.000000
vn 0.000000 0.000000 1.000000
vn 0.000000 0.000000 1.000000
vn 0.000000 0.000000 1.000000
vn 0.000000 0.000000 1.000000
vn 0.000000 0.000000 1.000000
vn 0.000000 0.000000 1.000000
vn 0.000000 0.000000 1.000000
vn 0.000000 -0.000005 1.000000
vn 0.000000 -0.000005 1.000000
vn 0.000000 -0.000005 1.000000
vn 0.000000 -0.000005 1.000000
vn 0.000000 0.000000 1.000000
vn 0.000000 0.000000 1.000000
vn 0.000000 0.000000 1.000000
vn 0.000000 0.000000 1.000000
vn 0.000000 0.000000 1.000000
vn 0.000000 0.000000 1.000000
vn 0.000000 0.000000 1.000000
vn 0.000000 0.000000 1.000000
vn 0.000000 0.000000 1.000000
vn 0.000000 0.000000 1.000000
vn 0.000000 0.000000 1.000000
vn 0.000000 0.000000 1.000000
vn 0.000000 0.000005 1.000000
vn 0.000000 0.000005 1.000000
vn 0.000000 0.000005 1.000000
vn 0.000000 0.000005 1.000000
vn 0.000000 0.000000 1.000000
vn 0.000000 0.000000 1.000000
vn 0.000000 0.000000 1.000000
vn 0.000000 0.000000 1.000000
vn 0.000000 -0.000005 1.000000
vn 0.000000 -0.000005 1.000000
vn 0.000000 -0.000005 1.000000
vn 0.000000 -0.000005 1.000000
vn 0.000000 0.000000 1.000000
vn 0.000000 0.000000 1.000000
vn 0.000000 0.000000 1.000000
vn 0.000000 0.000000 1.000000
vn 0.000000 -0.000005 1.000000
vn 0.000000 -0.000005 1.000000
vn 0.000000 -0.000005 1.000000
vn 0.000000 -0.000005 1.000000
vn 0.000000 0.000000 1.000000
vn 0.000000 0.000000 1.000000
vn 0.000000 0.000000 1.000000
vn 0.000000 0.000000 1.000000
vn 0.000000 -0.000005 1.000000
vn 0.000000 -0.000005 1.000000
vn 0.000000 -0.000005 1.000000
vn 0.000000 -0.000005 1.000000
vn 0.000000 0.000000 1.000000
vn 0.000000 0.000000 1.000000
vn 0.000000 0.000000 1.000000
vn 0.000000 0.000000 1.000000
vn 0.000000 0.000005 1.000000
vn 0.000000 0.000005 1.000000
vn 0.000000 0.000005 1.000000
vn 0.000000 0.000005 1.000000
vn 0.000000 0.000000 1.000000
vn 0.000000 0.000000 1.000000
vn 0.000000 0.000000 1.000000
vn 0.000000 0.000000 1.000000
f 1/1/1 2/2/2 3/3/3 4/4/4
f 5/5/5 6/6/6 7/7/7 8/8/8
f 9/9/9 10/10/10 11/11/11 12/12/12
f 13/13/13 14/14/14 15/15/15 16/16/16
f 20/17/17 19/18/18 18/19/19 17/20/20
f 24/21/21 23/22/22 22/23/23 21/24/24
f 28/25/25 27/26/26 26/27/27 25/28/28
f 32/29/29 31/30/30 30/31/31 29/32/32
f 36/33/33 35/34/34 34/35/35 33/36/36
f 40/37/37 39/38/38 38/39/39 37/40/40
f 41/41/41 42/42/42 43/43/43 44/44/44
f 45/45/45 46/46/46 47/47/47 48/48/48
f 52/49/49 51/50/50 50/51/51 49/52/52
f 56/53/53 55/54/54 54/55/55 53/56/56
f 60/57/57 59/58/58 58/59/59 57/60/60
f 64/61/61 63/62/62 62/63/63 61/64/64
f 65/65/65 66/66/66 67/67/67 68/68/68
f 69/69/69 70/70/70 71/71/71 72/72/72
f 73/73/73 74/74/74 75/75/75 76/76/76
f 77/77/77 78/78/78 79/79/79 80/80/80
f 81/81/81 82/82/82 83/83/83 84/84/84
f 85/85/85 86/86/86 87/87/87 88/88/88
f 92/89/89 91/90/90 90/91/91 89/92/92
f 96/93/93 95/94/94 94/95/95 93/96/96
